<svg id="Layer_1" viewBox="0 0 255.94 107.63"><g id="JDyUrZ.tif"><g><path d="M0,36.01c.36-.64,.65-1.34,1.09-1.92,1.45-1.93,3.97-2.19,5.65-.64,1.62,1.49,1.66,3.98,.1,5.52-1.63,1.61-4.16,1.43-5.68-.41-.41-.5-.78-1.04-1.16-1.55v-1Z"/><path d="M64.19,52.26c2.18-2.74,4.64-5.94,7.22-9.05,1.52-1.83,3.55-2.68,5.98-2.48,.5,.04,1,.07,1.49,.06,10.3-.23,12.02,3.88,13.91,12.12,1.85,8.06,.46,16.19,.38,24.3-.02,1.74-.18,3.48-.26,5.22-.16,3.49-1.7,5.43-4.24,5.32-2.47-.11-3.87-2.04-3.77-5.42,.2-6.3,.71-12.6,.61-18.89-.06-4.01-.8-8.06-1.61-12.01-.57-2.76-5.44-3.7-7.46-1.67-4.29,4.32-6.52,9.48-6.64,15.59-.11,5.31-.44,10.61-.56,15.91-.07,2.97,.05,5.95,.18,8.93,.14,3.11-1.02,5.17-3.31,5.64-2.39,.49-3.97-.81-5.01-4.01-.3-.94-.77-1.83-1.17-2.74-3.38-7.81-5-15.91-4.34-24.46,1.06-13.75-1.38-27.08-5.22-40.21-.35-1.18-.9-2.32-1.48-3.42-1.85-3.51-5.67-3.79-7.85-.45-2.59,3.96-4.65,8.02-4.63,13.1,.02,8.62-.51,17.24-.97,25.85-.24,4.47,.62,8.68,1.94,12.92,1.35,4.33,2.42,8.76,3.31,13.21,.38,1.9,.22,3.99-.08,5.93-.32,2.01-1.8,3.2-3.89,3.17-2.11-.03-3.76-1.34-3.73-3.31,.17-8.68-4.09-16.33-5.42-24.64-.22-1.39-.46-2.8-.41-4.19,.42-11.35,.38-22.76,1.56-34.04,.74-7.11,4.62-13.37,10.79-17.44,4.64-3.07,12.81-.44,15.69,4.49,3.41,5.83,4.9,12.3,6.08,18.84,1.11,6.16,2.03,12.35,2.92,17.85Z"/><path d="M228.49,52.63c-2.02,.96-3.35,1.36-4.35,2.16-.62,.5-1.02,1.6-1.07,2.45-.33,5.88-.55,11.76-.8,17.64-.03,.66-.05,1.33-.13,1.98-.32,2.6-1.9,4.14-4.15,4.08-2.22-.07-3.85-1.77-3.85-4.34,0-3.07,.19-6.13,.3-9.2,.09-2.57,.14-5.14,.29-7.71,.08-1.46-.09-2.56-1.43-3.62-2.02-1.6-1.62-4.24,.32-6.04,.78-.73,1.5-1.94,1.55-2.96,.5-9.27,.87-18.55,1.21-27.83,.03-.93-.22-1.96-.65-2.79-1.64-3.18-.11-6.14,3.52-6.34,2.23-.12,4.48,.06,6.73,.15,3.49,.13,6.99,.55,10.46,.38,6.07-.3,10.08,2.8,13.19,7.44,1.85,2.75,3.6,5.6,5.03,8.58,2.02,4.19,1.38,8.68-.01,12.82-.54,1.62-2.83,2.93-4.6,3.83-4.14,2.11-8.42,3.94-12.7,5.75-1.47,.62-1.43,1.57-1.2,2.79,1.09,5.66,2.2,11.33,3.23,17,.22,1.21,.25,2.48,.17,3.71-.18,2.72-1.86,4.43-4.14,4.4-2.31-.03-3.65-1.75-4.01-4.5-.85-6.44-1.88-12.87-2.91-19.82Zm-5.01-6.68c1.78-.71,3.09-1.2,4.36-1.76,5.45-2.4,10.89-4.86,16.35-7.23,3.39-1.47,4.42-4.59,2.52-7.86-1.09-1.86-2.15-3.73-3.24-5.59-1.68-2.85-3.75-4.87-7.5-4.64-2.89,.18-5.8-.2-8.71-.31-.87-.03-1.73,0-2.68,0-.37,9.21-.72,18.05-1.1,27.4Z"/><path d="M128.7,98.92c5.16-2.34,10.03-4.55,14.89-6.76,1.35-.62,2.65-1.44,4.07-1.81,2.09-.55,3.81,.25,4.72,2.26,.89,1.97,.25,3.77-1.53,4.73-4.44,2.39-8.94,4.71-13.55,6.76-3.1,1.37-6.37,2.43-9.66,3.27-3.95,1.01-6.2-.89-6.97-4.88-2.36-12.28-1.36-24.61-.86-36.95,.81-19.89,1.62-39.77,2.44-59.66,.04-1.07-.08-2.42,.5-3.12,.97-1.17,2.35-2.46,3.74-2.71,1.84-.34,3.26,1.07,3.76,2.95,.23,.86,.26,1.81,.22,2.71-.98,24.53-2.06,49.05-2.91,73.58-.2,5.61,.36,11.24,.6,16.86,.03,.71,.26,1.41,.53,2.77Z"/><path d="M167.52,44.83c1.24,4.94,2.88,9.28,7.46,11.98,3.92,2.31,7.65,4.93,11.53,7.31,.95,.59,2.13,.97,3.25,1.1,3.95,.45,6.66-2.09,6.94-6.07,.21-3.05,.59-6.09,1.09-9.1,.35-2.11,1.77-3.37,3.98-3.43,1.96-.05,3.93,1.7,3.81,3.85-.4,7.11,.06,14.48-5.9,20.08-2.07,1.94-4.11,3-6.99,3.12-7.86,.32-13.69-4.16-19.62-8.15-3.38-2.28-6.71-5.06-9.07-8.33-3.73-5.17-5.75-11.2-5.13-17.76,.29-3.01,.14-6.37,1.47-8.91,3.09-5.9,4.53-5.93,11.22-5.11,2.95,.36,5.84,1.3,8.68,2.22,1.19,.39,2.53,1.18,3.19,2.19,1.85,2.84,3.64,5.77,4.96,8.87,1.67,3.92-.46,6.74-4.78,6.67-4.49-.08-8.97-.34-13.46-.5-.81-.03-1.62,0-2.63,0Zm-.13-8.26h10.49c-.57-.93-1.28-1.43-2.07-1.67-1.74-.53-3.52-.93-5.29-1.38-2.67-.68-3.12-.3-3.13,3.05Z"/><path d="M146.47,64.9c3.28-1.37,6.16-2.64,9.09-3.77,1.46-.56,2.99-1.08,4.53-1.23,2.15-.22,4.04,1.33,4.42,3.24,.39,1.97-.85,3.67-2.95,4.59-5.06,2.24-10.14,4.47-15.07,6.96-3.97,2-6.78,.4-7.14-4.06-.23-2.76-1.59-5.47-1.63-8.21-.14-9.93-.01-19.87,.17-29.8,.05-2.54,1.99-4.17,4.16-4.1,2.33,.07,3.96,1.97,3.89,4.87-.11,4.89-.47,9.77-.53,14.66-.06,4.38,.1,8.77,.27,13.15,.04,1.13,.47,2.24,.79,3.69Z"/><path d="M102.98,65.82c-.58-4.74-1.47-9.48-1.68-14.24-.25-5.76-.09-11.56,.21-17.33,.11-2.06,1.75-3.35,4.02-3.28,2.06,.06,3.56,1.64,3.73,3.92,.06,.82-.01,1.66-.03,2.48-.12,5.86-.43,11.64,.9,17.52,.98,4.35,.44,9.05,.54,13.6,.06,2.72,.08,5.45,.09,8.18,0,.99,0,2-.16,2.97-.39,2.28-2.01,3.69-4.03,3.66-2.14-.04-3.7-1.61-3.9-4.05-.18-2.22-.31-4.45-.37-6.68-.06-2.23-.01-4.47-.01-6.71l.69-.05Z"/><path d="M14.96,55.23c-1.21,6.04,1.35,11.24,2.14,16.69,.77,5.3,1.42,10.63,1.73,15.97,.07,1.15-1.38,3.11-2.49,3.42-1.26,.35-3.15-.43-4.33-1.3-.81-.6-1.06-2.17-1.25-3.36-.92-5.78-1.24-11.7-2.71-17.33-1.61-6.16-1.69-12.26-1.27-18.47,.21-3.03,1.99-4.89,4.36-4.74,2.35,.15,3.83,2.2,3.81,5.23-.01,1.41,0,2.82,0,3.9Z"/><path d="M106.97,19.54c-.06,2.07-1.82,3.8-3.81,3.77-2.12-.03-3.89-1.93-3.78-4.06,.11-2.05,1.91-3.69,3.94-3.62,2.05,.08,3.71,1.86,3.65,3.9Z"/></g></g></svg>